<mxfile host="65bd71144e">
    <diagram id="q6220vlSL0iCL7LhmkL_" name="Page-1">
        <mxGraphModel dx="1062" dy="1004" grid="1" gridSize="10" guides="1" tooltips="1" connect="1" arrows="1" fold="1" page="1" pageScale="1" pageWidth="827" pageHeight="1169" math="0" shadow="0">
            <root>
                <mxCell id="0"/>
                <mxCell id="1" parent="0"/>
                <mxCell id="30" style="edgeStyle=none;html=1;entryX=0;entryY=0.5;entryDx=0;entryDy=0;" edge="1" parent="1" source="5bHgfUOPWzmS3gEZMg3P-1" target="5bHgfUOPWzmS3gEZMg3P-3">
                    <mxGeometry relative="1" as="geometry"/>
                </mxCell>
                <mxCell id="31" style="edgeStyle=none;html=1;entryX=0;entryY=0.5;entryDx=0;entryDy=0;" edge="1" parent="1" source="5bHgfUOPWzmS3gEZMg3P-1" target="5bHgfUOPWzmS3gEZMg3P-4">
                    <mxGeometry relative="1" as="geometry"/>
                </mxCell>
                <mxCell id="32" style="edgeStyle=none;html=1;entryX=0;entryY=0.5;entryDx=0;entryDy=0;" edge="1" parent="1" source="5bHgfUOPWzmS3gEZMg3P-1" target="5bHgfUOPWzmS3gEZMg3P-13">
                    <mxGeometry relative="1" as="geometry"/>
                </mxCell>
                <mxCell id="5bHgfUOPWzmS3gEZMg3P-1" value="User" style="shape=umlActor;verticalLabelPosition=bottom;verticalAlign=top;html=1;outlineConnect=0;" parent="1" vertex="1">
                    <mxGeometry x="150" y="240" width="30" height="60" as="geometry"/>
                </mxCell>
                <mxCell id="5bHgfUOPWzmS3gEZMg3P-3" value="Bilder hochladen" style="ellipse;whiteSpace=wrap;html=1;" parent="1" vertex="1">
                    <mxGeometry x="322" y="152.5" width="98" height="60" as="geometry"/>
                </mxCell>
                <mxCell id="5bHgfUOPWzmS3gEZMg3P-4" value="Bilder anschauen" style="ellipse;whiteSpace=wrap;html=1;" parent="1" vertex="1">
                    <mxGeometry x="324" y="242.5" width="96" height="60" as="geometry"/>
                </mxCell>
                <mxCell id="5bHgfUOPWzmS3gEZMg3P-13" value="Bilder vergrössert anschauen" style="ellipse;whiteSpace=wrap;html=1;" parent="1" vertex="1">
                    <mxGeometry x="322" y="322.5" width="100" height="65" as="geometry"/>
                </mxCell>
                <mxCell id="25" style="edgeStyle=none;html=1;entryX=0;entryY=0;entryDx=0;entryDy=0;" edge="1" parent="1" source="15" target="21">
                    <mxGeometry relative="1" as="geometry"/>
                </mxCell>
                <mxCell id="26" style="edgeStyle=none;html=1;entryX=0;entryY=0.5;entryDx=0;entryDy=0;" edge="1" parent="1" source="15" target="20">
                    <mxGeometry relative="1" as="geometry"/>
                </mxCell>
                <mxCell id="27" style="edgeStyle=none;html=1;entryX=0;entryY=0.5;entryDx=0;entryDy=0;" edge="1" parent="1" source="15" target="19">
                    <mxGeometry relative="1" as="geometry"/>
                </mxCell>
                <mxCell id="28" style="edgeStyle=none;html=1;entryX=0;entryY=0.5;entryDx=0;entryDy=0;" edge="1" parent="1" source="15" target="17">
                    <mxGeometry relative="1" as="geometry"/>
                </mxCell>
                <mxCell id="29" style="edgeStyle=none;html=1;entryX=0;entryY=0.5;entryDx=0;entryDy=0;" edge="1" parent="1" source="15" target="16">
                    <mxGeometry relative="1" as="geometry"/>
                </mxCell>
                <mxCell id="15" value="Admin" style="shape=umlActor;verticalLabelPosition=bottom;verticalAlign=top;html=1;outlineConnect=0;" vertex="1" parent="1">
                    <mxGeometry x="450" y="240" width="30" height="60" as="geometry"/>
                </mxCell>
                <mxCell id="16" value="Bilder hochladen" style="ellipse;whiteSpace=wrap;html=1;" vertex="1" parent="1">
                    <mxGeometry x="622" y="100" width="98" height="60" as="geometry"/>
                </mxCell>
                <mxCell id="17" value="Bilder anschauen" style="ellipse;whiteSpace=wrap;html=1;" vertex="1" parent="1">
                    <mxGeometry x="624" y="190" width="96" height="60" as="geometry"/>
                </mxCell>
                <mxCell id="19" value="Bilder vergrössert anschauen" style="ellipse;whiteSpace=wrap;html=1;" vertex="1" parent="1">
                    <mxGeometry x="622" y="270" width="100" height="65" as="geometry"/>
                </mxCell>
                <mxCell id="20" value="Bilder löschen" style="ellipse;whiteSpace=wrap;html=1;" vertex="1" parent="1">
                    <mxGeometry x="624" y="360" width="96" height="70" as="geometry"/>
                </mxCell>
                <mxCell id="21" value="Admins hinzufügen / löschen" style="ellipse;whiteSpace=wrap;html=1;" vertex="1" parent="1">
                    <mxGeometry x="626" y="460" width="96" height="70" as="geometry"/>
                </mxCell>
                <mxCell id="22" value="Galerie Passwort ändern" style="ellipse;whiteSpace=wrap;html=1;" vertex="1" parent="1">
                    <mxGeometry x="490" y="470" width="96" height="70" as="geometry"/>
                </mxCell>
                <mxCell id="24" value="" style="endArrow=classic;html=1;entryX=0.5;entryY=0;entryDx=0;entryDy=0;" edge="1" parent="1" source="15" target="22">
                    <mxGeometry width="50" height="50" relative="1" as="geometry">
                        <mxPoint x="510" y="430" as="sourcePoint"/>
                        <mxPoint x="560" y="380" as="targetPoint"/>
                    </mxGeometry>
                </mxCell>
            </root>
        </mxGraphModel>
    </diagram>
</mxfile>